<?xml version="1.0" encoding="utf-8"?>
<!-- Generator: Adobe Illustrator 17.0.0, SVG Export Plug-In . SVG Version: 6.00 Build 0)  -->
<!DOCTYPE svg PUBLIC "-//W3C//DTD SVG 1.1 Tiny//EN" "http://www.w3.org/Graphics/SVG/1.1/DTD/svg11-tiny.dtd">
<svg version="1.1" baseProfile="tiny" id="Capa_1" xmlns="http://www.w3.org/2000/svg" xmlns:xlink="http://www.w3.org/1999/xlink"
	 x="0px" y="0px" width="281.176px" height="80.557px" viewBox="0 0 281.176 80.557" xml:space="preserve">
<g>
	<path fill="#FFFFFF" d="M80.201,55.036h13.275v-5.158H80.201v-7.414h13.65V37.37H74.574v30.469h19.723v-5.16H80.201V55.036z
		 M102.961,39.481h-5.646v28.357h19.855v-4.836h-14.209V39.481z M143.02,51.545c0.764-0.492,1.438-1.054,1.928-1.756
		c0.824-1.134,1.201-2.549,1.201-4.161c0-2.574-0.873-4.695-2.633-6.146c-1.76-1.469-4.152-2.141-7.178-2.141h-9.289v30.498h10.879
		c3.131,0,5.703-0.764,7.646-2.314c1.932-1.552,2.971-3.717,2.924-6.328c0-2.028-0.648-3.818-1.898-5.246
		C145.662,52.903,144.457,52.1,143.02,51.545 M132.609,42.497h3.289c1.729,0,2.863,0.313,3.482,0.819
		c0.301,0.272,0.531,0.553,0.709,0.992c0.146,0.419,0.234,0.942,0.234,1.583c0,1.408-0.412,2.289-1.262,2.927
		c-0.818,0.614-2.262,0.995-4.332,0.995h-2.121V42.497z M141.525,61.718c-0.73,0.559-2.076,0.938-4.041,0.902h-4.875v-7.615h4.191
		c2.199,0,3.729,0.373,4.572,0.997c0.832,0.621,1.264,1.464,1.264,2.901C142.637,60.306,142.266,61.151,141.525,61.718
		 M192.857,51.222L192.857,51.222l-0.611-0.322c-1.611-0.938-2.787-1.791-3.543-2.52c-0.385-0.379-0.643-0.695-0.787-0.99
		c-0.186-0.287-0.234-0.498-0.234-0.675c0.021-0.704,0.252-1.176,0.898-1.642c0.648-0.473,1.494-0.736,2.643-0.736
		c0.961,0,1.904,0.176,2.867,0.558c0.973,0.408,2.055,1.029,3.223,1.94l1.141,0.85v-6.071l-0.346-0.205
		c-1.107-0.611-2.225-1.081-3.35-1.409c-1.109-0.287-2.225-0.468-3.369-0.468c-2.533,0-4.713,0.708-6.408,2.118
		c-1.668,1.404-2.553,3.3-2.553,5.503c0,1.587,0.451,2.994,1.342,4.151c0.519,0.629,1.25,1.268,2.242,1.997
		c1.018,0.772,2.332,1.62,3.924,2.593c0.998,0.576,1.801,1.105,2.424,1.543c0.623,0.445,1.064,0.822,1.266,1.057
		c0.434,0.527,0.605,1.052,0.645,1.756c-0.039,0.846-0.297,1.38-0.94,1.877c-0.617,0.467-1.545,0.758-2.84,0.758
		c-1.197,0-2.314-0.264-3.377-0.822c-1.043-0.525-2.195-1.465-3.422-2.742l-1.23-1.331v7.04l0.301,0.198
		c1.16,0.909,2.385,1.586,3.689,1.993c1.311,0.453,2.748,0.657,4.287,0.657c2.549,0,4.73-0.712,6.406-2.112
		c1.691-1.412,2.566-3.291,2.566-5.459c0-1.848-0.432-3.457-1.365-4.773C197.402,54.181,195.59,52.808,192.857,51.222
		 M228.318,63.143c2.109-2.51,3.166-5.489,3.166-8.865c0-2.055-0.389-3.995-1.123-5.783c-0.748-1.756-1.871-3.364-3.336-4.802
		c-1.398-1.378-3.049-2.462-4.891-3.196c-1.881-0.732-3.809-1.104-5.857-1.104c-2.021,0-3.957,0.371-5.801,1.104
		c-1.824,0.734-3.465,1.791-4.934,3.196c-1.398,1.38-2.523,2.959-3.264,4.747c-0.803,1.818-1.193,3.66-1.193,5.572
		c0,3.481,1.064,6.584,3.146,9.203c2.055,2.6,4.795,4.327,8.137,5.174c2.506,1.768,4.842,3.114,7.064,4.043
		c2.299,0.963,4.381,1.439,6.275,1.439h0.561c0.176,0,0.318-0.021,0.461-0.045l0.219-0.041l4.18-3.662l-0.326-0.883l-0.227-0.549
		l-0.551,0.115c-0.545,0.121-1.002,0.178-1.449,0.221c-0.41,0.074-0.781,0.074-1.146,0.074c-1.074,0-2.219-0.158-3.414-0.445
		c-0.738-0.202-1.592-0.498-2.484-0.85C224.275,66.788,226.588,65.265,228.318,63.143 M225.211,57.292
		c-0.502,1.166-1.166,2.221-2.082,3.108l-0.031,0.031c-0.936,0.965-1.994,1.662-3.131,2.162c-1.178,0.475-2.396,0.727-3.689,0.727
		c-1.289,0-2.5-0.252-3.697-0.756c-1.211-0.522-2.227-1.225-3.146-2.133v-0.031c-0.895-0.887-1.6-1.942-2.068-3.108
		c-0.502-1.175-0.727-2.404-0.727-3.693c0-1.314,0.225-2.546,0.727-3.748c0.469-1.172,1.174-2.192,2.055-3.089
		c0.965-0.936,2.014-1.631,3.197-2.128c1.201-0.5,2.398-0.729,3.66-0.729c1.293,0,2.512,0.229,3.689,0.729
		c1.168,0.465,2.195,1.172,3.109,2.105c0.969,0.971,1.66,2.019,2.135,3.196c0.498,1.147,0.73,2.349,0.73,3.663
		C225.941,54.888,225.709,56.117,225.211,57.292 M253.184,56.911c-0.025,1.811-0.601,3.158-1.902,4.24
		c-1.248,1.059-2.949,1.654-5.18,1.654c-1.316,0-2.463-0.242-3.428-0.639c-1.002-0.424-1.848-1.072-2.58-1.918
		c-0.369-0.441-0.646-0.968-0.781-1.578c-0.18-0.617-0.279-1.79-0.279-3.49V39.502h-5.236v15.831c0,2.16,0.139,3.779,0.469,4.916
		c0.326,1.122,0.84,2.141,1.605,3.045c1.207,1.502,2.67,2.613,4.424,3.387c1.734,0.775,3.689,1.158,5.807,1.158
		c3.561,0,6.561-0.992,8.854-2.984c2.309-1.971,3.486-4.658,3.447-7.826V39.502h-5.219V56.911z M267.395,62.942v-6.94h13.363v-4.864
		h-13.363v-6.676h13.781v-4.839h-19.428V67.77h19.875v-4.828H267.395z M176.123,43.484c-1.43-1.368-3.07-2.397-4.912-3.13
		c-1.879-0.707-3.84-1.084-5.895-1.084c-2.018,0-3.947,0.377-5.793,1.084c-1.854,0.701-3.525,1.762-4.953,3.13
		c-1.434,1.317-2.549,2.876-3.344,4.639c-0.764,1.755-1.172,3.599-1.172,5.476c0,1.967,0.381,3.867,1.139,5.619
		c0.766,1.764,1.885,3.346,3.377,4.755c1.406,1.316,3.045,2.374,4.924,3.102c1.834,0.695,3.805,1.084,5.822,1.084
		c2.055,0,4.016-0.352,5.861-1.059c1.844-0.727,3.486-1.748,4.988-3.128c1.438-1.353,2.52-2.907,3.309-4.634
		c0.762-1.754,1.135-3.601,1.135-5.513c0-2.015-0.373-3.891-1.107-5.624C178.729,46.448,177.604,44.864,176.123,43.484
		 M174.318,57.315c-0.504,1.142-1.174,2.172-2.086,3.06c-0.939,0.899-1.994,1.613-3.135,2.043c-1.203,0.465-2.43,0.701-3.781,0.701
		c-1.311,0-2.549-0.236-3.752-0.701c-1.193-0.506-2.223-1.173-3.129-2.043c-0.912-0.889-1.619-1.918-2.084-3.06
		c-0.498-1.141-0.732-2.311-0.732-3.604c0-1.259,0.234-2.459,0.732-3.633c0.5-1.144,1.172-2.133,2.084-3.011
		c0.963-0.893,2.025-1.58,3.209-2.084c1.178-0.471,2.406-0.707,3.672-0.707c1.322,0,2.551,0.236,3.723,0.707
		c1.174,0.463,2.225,1.166,3.141,2.084c0.965,0.934,1.668,1.959,2.164,3.104c0.461,1.111,0.703,2.281,0.703,3.54
		C175.047,55.005,174.805,56.175,174.318,57.315 M82.596,30.661c2.521,0,4.518-0.797,5.996-2.377
		c1.451-1.58,2.215-3.721,2.215-6.389V10.259h-1.678v11.727c0,2.137-0.586,3.836-1.742,5.102c-1.211,1.256-2.789,1.9-4.791,1.9
		c-1.984,0-3.57-0.645-4.746-1.9c-1.199-1.266-1.791-2.965-1.791-5.102V10.259h-1.596v11.637c0,2.693,0.717,4.835,2.188,6.389
		C78.119,29.864,80.113,30.661,82.596,30.661 M98.512,13.285l12.891,15.554h1.293V11.251h-1.387v15.328L98.566,11.251h-1.459v17.588
		h1.404V13.285z M119.08,29.1h1.498V11.493h-1.498V29.1z M133.234,29.397l7.391-17.905h-1.502l-6.012,14.774l-5.94-14.774h-1.561
		l7.414,17.905H133.234z M154.453,27.9h-8.24v-7.153h7.77v-1.135h-7.77v-6.976h8.031v-1.145h-9.441V29.1h9.65V27.9z M162.041,20.64
		h1.416c1.012,0,1.752,0.083,2.242,0.196c0.502,0.118,0.898,0.36,1.234,0.677c0.232,0.229,0.524,0.621,0.934,1.177
		c0.377,0.526,0.877,1.229,1.404,2.08l2.783,4.331h1.578l-4.801-7.405c-0.209-0.324-0.438-0.621-0.666-0.859
		c-0.271-0.235-0.564-0.435-0.889-0.64c1.117-0.353,1.945-0.885,2.496-1.615c0.553-0.709,0.822-1.61,0.822-2.662
		c0-1.435-0.477-2.52-1.469-3.282c-0.994-0.765-2.396-1.145-4.242-1.145h-4.232V29.1h1.389V20.64z M162.041,12.696h2.93
		c1.312,0,2.307,0.258,3.043,0.847c0.703,0.556,1.051,1.351,1.051,2.376c0,0.735-0.143,1.369-0.463,1.879
		c-0.324,0.523-0.795,0.906-1.436,1.188c-0.346,0.161-0.77,0.271-1.289,0.363c-0.537,0.057-1.447,0.082-2.75,0.082h-1.086V12.696z
		 M186.994,24.526c0-0.582-0.107-1.139-0.27-1.664c-0.221-0.528-0.502-1.002-0.863-1.408c-0.557-0.618-1.641-1.258-3.227-1.902
		c-0.174-0.081-0.281-0.121-0.375-0.18c-1.438-0.617-2.371-1.137-2.785-1.633c-0.439-0.467-0.648-1.119-0.648-1.879
		c0-0.945,0.32-1.729,0.994-2.373c0.672-0.612,1.523-0.936,2.568-0.936c0.652,0,1.303,0.115,1.941,0.346
		c0.69,0.232,1.35,0.618,2.084,1.114v-1.579c-0.67-0.385-1.311-0.678-1.967-0.883c-0.637-0.166-1.312-0.299-1.986-0.299
		c-1.498,0-2.699,0.445-3.635,1.322c-0.941,0.889-1.408,1.998-1.408,3.346c0,1.107,0.299,2.021,0.918,2.728
		c0.613,0.702,1.748,1.409,3.424,2.101c1.611,0.68,2.633,1.264,3.088,1.766c0.457,0.527,0.658,1.177,0.658,1.967
		c0,1.084-0.311,1.924-0.998,2.567c-0.643,0.622-1.549,0.94-2.689,0.94c-0.674,0-1.41-0.172-2.119-0.48
		c-0.75-0.308-1.52-0.776-2.334-1.426v1.7c0.762,0.532,1.488,0.907,2.229,1.17c0.754,0.261,1.494,0.388,2.254,0.388
		c1.502,0,2.723-0.436,3.689-1.352C186.504,27.087,186.994,25.933,186.994,24.526 M194.09,11.492h-1.484v17.606h1.484V11.492z
		 M210,28.688c0.965-0.258,1.795-0.668,2.559-1.229c1.08-0.824,1.928-1.84,2.543-3.101c0.617-1.263,0.902-2.642,0.902-4.077
		c0-1.435-0.285-2.789-0.902-4.07c-0.615-1.26-1.463-2.293-2.543-3.105c-0.764-0.555-1.594-0.97-2.529-1.234
		c-0.936-0.222-2.043-0.38-3.391-0.38h-6.037V29.1h6.037C207.957,29.1,209.066,28.951,210,28.688 M202.096,27.845V12.749h4.191
		c1.137,0,2.129,0.126,2.943,0.299c0.83,0.207,1.559,0.495,2.139,0.904c0.979,0.648,1.742,1.563,2.305,2.668
		c0.543,1.119,0.812,2.347,0.812,3.693c0,1.316-0.27,2.549-0.812,3.693c-0.562,1.111-1.326,1.992-2.305,2.67
		c-0.58,0.41-1.309,0.699-2.139,0.902c-0.814,0.176-1.807,0.266-2.943,0.266H202.096z M225.885,12.168L218.65,29.1h1.4l2.463-5.861
		h7.291l2.475,5.861h1.402l-7.236-16.933H225.885z M222.982,22.095l3.195-7.61l3.172,7.61H222.982z M248.152,28.688
		c0.984-0.258,1.82-0.668,2.549-1.229c1.092-0.824,1.93-1.84,2.549-3.101c0.619-1.263,0.914-2.642,0.914-4.077
		c0-1.435-0.295-2.789-0.914-4.07c-0.619-1.26-1.457-2.293-2.549-3.105c-0.729-0.555-1.564-0.97-2.523-1.234
		c-0.938-0.222-2.047-0.38-3.393-0.38h-6.006V29.1h6.006C246.102,29.1,247.213,28.951,248.152,28.688 M240.236,27.845V12.749h4.203
		c1.127,0,2.131,0.126,2.947,0.299c0.824,0.207,1.562,0.495,2.141,0.904c0.973,0.648,1.738,1.563,2.281,2.668
		c0.564,1.119,0.822,2.347,0.822,3.693c0,1.316-0.258,2.549-0.822,3.693c-0.543,1.111-1.309,1.992-2.281,2.67
		c-0.578,0.41-1.316,0.699-2.141,0.902c-0.816,0.176-1.82,0.266-2.947,0.266H240.236z"/>
	<path fill="#D27A2B" d="M48.283,4.054c0,0.641,0.568,1.147,1.225,1.147c0.684,0,1.246-0.506,1.246-1.147
		c0-0.617-0.562-1.147-1.246-1.147C48.852,2.906,48.283,3.436,48.283,4.054 M57.99,10.089c0-0.619,0.52-1.137,1.197-1.137
		c0.684,0,1.229,0.518,1.229,1.137c0,0.645-0.545,1.163-1.229,1.163c-0.467,0-0.879-0.253-1.09-0.611
		c0.525,1.431,0.918,2.966,1.035,4.455c0.055,0.496,0.082,0.964,0.082,1.415c0.148-0.512,0.623-0.861,1.201-0.861
		c0.674,0,1.205,0.534,1.205,1.15c0,0.637-0.531,1.141-1.205,1.141c-0.545,0-1.053-0.354-1.201-0.818
		c0,2.635-0.812,4.008-1.287,4.596l-0.121,0.179c0.184-0.126,0.385-0.179,0.623-0.179c0.67,0,1.188,0.529,1.188,1.175
		c0,0.61-0.518,1.138-1.188,1.138c-0.674,0-1.238-0.527-1.238-1.138c0-0.14,0.027-0.252,0.057-0.38
		c-0.934,1.023-1.934,1.92-3.031,2.931c0.162-0.095,0.373-0.119,0.576-0.119c0.686,0,1.221,0.499,1.221,1.144
		c0,0.617-0.535,1.135-1.221,1.135c-0.672,0-1.195-0.518-1.195-1.135c0-0.232,0.041-0.448,0.172-0.619
		c-1,0.882-2.051,1.787-3.227,2.907c-0.496,0.552-0.352,1.046,0.496,1.732c0.389,0.341,0.758,0.687,1.15,1.052
		c-0.092-0.15-0.127-0.324-0.127-0.541c0-0.609,0.533-1.135,1.215-1.135c0.658,0,1.213,0.525,1.213,1.135
		c0,0.657-0.555,1.189-1.213,1.189c-0.215,0-0.43-0.066-0.596-0.158c1.088,1.057,2.146,2.141,3.078,3.113
		c-0.084-0.146-0.146-0.324-0.146-0.529c0-0.613,0.561-1.148,1.23-1.148c0.674,0,1.211,0.535,1.211,1.148
		c0,0.639-0.537,1.168-1.211,1.168c-0.26,0-0.5-0.082-0.67-0.203c0.5,0.525,0.965,1.02,1.311,1.407
		c1.139,1.2,1.201,2.142,0.094,3.456c-0.33,0.382-0.762,0.815-1.287,1.319c0.146-0.052,0.322-0.111,0.486-0.111
		c0.688,0,1.24,0.52,1.24,1.16c0,0.624-0.553,1.151-1.24,1.151c-0.66,0-1.197-0.527-1.197-1.151c0-0.166,0.033-0.315,0.096-0.464
		c-1,0.969-2.197,2.051-3.344,3.143c0.176-0.091,0.389-0.158,0.594-0.158c0.672,0,1.223,0.533,1.223,1.148
		c0,0.642-0.551,1.149-1.223,1.149c-0.686,0-1.207-0.507-1.207-1.149c0-0.209,0.057-0.409,0.17-0.586
		c-1.107,1.021-2.139,1.99-2.949,2.762c-0.832,0.841-0.389,0.985,0.281,1.9l0.971,1.143c-0.051-0.153-0.088-0.293-0.088-0.475
		c0-0.64,0.529-1.143,1.203-1.143c0.695,0,1.24,0.503,1.24,1.143c0,0.65-0.545,1.141-1.24,1.141c-0.268,0-0.498-0.053-0.705-0.207
		c0.877,1.029,1.906,2.178,2.877,3.256c-0.092-0.146-0.119-0.327-0.119-0.493c0-0.642,0.531-1.146,1.207-1.146
		c0.672,0,1.227,0.505,1.227,1.146c0,0.642-0.555,1.143-1.227,1.143c-0.266,0-0.537-0.088-0.736-0.233l0.66,0.756
		c1.324,1.491,1.324,2.275,0.129,3.456l-0.85,0.672c0.121-0.023,0.26-0.047,0.41-0.047c0.672,0,1.225,0.524,1.225,1.143
		c0,0.64-0.553,1.133-1.225,1.133c-0.682,0-1.223-0.493-1.223-1.133c0-0.18,0.053-0.387,0.145-0.534
		c-1.383,1.116-2.635,2.168-3.881,3.167c0.119-0.031,0.262-0.063,0.422-0.063c0.656,0,1.221,0.509,1.221,1.144
		c0,0.643-0.564,1.146-1.221,1.146c-0.676,0-1.23-0.503-1.23-1.146c0-0.2,0.049-0.376,0.139-0.556
		c-0.844,0.695-1.725,1.382-2.609,2.046c-0.935,0.76-1.139,1.062-0.59,1.535c1.26,1.041,2.561,2.105,3.588,3.16
		c-0.088-0.179-0.143-0.385-0.143-0.587c0-0.649,0.514-1.171,1.197-1.171c0.672,0,1.228,0.521,1.228,1.171
		c0,0.616-0.557,1.141-1.228,1.141c-0.27,0-0.512-0.09-0.684-0.204c1.254,1.314,2.117,2.587,2.025,3.672
		c-0.355,2.16-2.58,1.924-3.928,1.107c-2.668-1.787-4.867-4.575-7.324-7.807c-1.232-2.043-2.023-2.775,0.328-4.393
		c1.637-1.318,3.713-2.893,7.4-5.586c1.066-0.763,1.066-1.083,0.123-2.201c-1.961-2.17-4.182-4.596-5.475-6.328
		c-0.738-0.908-0.682-1.867,0.08-2.727c2.148-2.545,6.01-5.857,7.941-7.645c0.824-0.762,0.996-1.202,0.358-1.903
		c-3.775-3.634-5.305-5.594-7.358-7.76c-1.086-1.442-0.832-2.145,0.334-3.347c1.252-1.293,1.389-1.354,4.412-4.191
		c4.453-4.071,5.049-4.193,3.283-7.435c-2.367-4.517-10.811-12.492-8.447-14.337c2.586-2.111,5.961-1.303,9.783,1.76
		c0.75,0.527,1.48,1.258,2.211,2.174c-0.049-0.123-0.088-0.277-0.088-0.418c0-0.641,0.549-1.165,1.203-1.165
		c0.701,0,1.226,0.524,1.226,1.165c0,0.612-0.525,1.136-1.226,1.136c-0.295,0-0.561-0.109-0.801-0.282
		c0.998,1.344,1.943,2.982,2.617,4.771V10.089z M30.859,74.903c4.238-14.061,6.025-29.572,6.025-44.159
		c0-6.949-0.699-13.913-2.188-20.717h6.441c1.176,7.147,1.672,14.405,1.672,21.654c0,16.81-2.291,33.114-8.793,48.851l-1.002,0.024
		h-2.156h-2.238l-0.982-0.024c-6.484-15.736-8.768-32.041-8.768-48.851c0-7.249,0.467-14.507,1.67-21.654h6.186
		c-1.498,6.804-1.957,13.768-1.957,20.717c0,14.587,1.805,30.099,6.027,44.159H30.859z M2.545,15.096
		c0.127-1.489,0.475-3.024,0.998-4.455c-0.203,0.358-0.611,0.611-1.084,0.611c-0.672,0-1.229-0.519-1.229-1.163
		c0-0.619,0.557-1.137,1.229-1.137c0.674,0,1.228,0.518,1.228,1.137c0,0.088,0,0.139-0.02,0.231C4.373,8.53,5.272,6.891,6.27,5.548
		C6.068,5.694,5.799,5.811,5.506,5.811c-0.678,0-1.23-0.537-1.23-1.179c0-0.614,0.553-1.14,1.23-1.14
		c0.678,0,1.231,0.525,1.231,1.14c0,0.148-0.029,0.292-0.084,0.442c0.707-0.906,1.436-1.639,2.137-2.137
		c3.848-3.062,7.211-3.871,9.785-1.76c2.367,1.845-6.037,9.82-8.432,14.337c-1.758,3.241-1.176,3.363,3.281,7.435
		c3.043,2.838,3.16,2.898,4.416,4.191c1.166,1.202,1.41,1.904,0.359,3.347c-2.078,2.166-3.605,4.126-7.389,7.76
		c-0.647,0.701-0.465,1.142,0.355,1.903c1.936,1.787,5.797,5.1,7.973,7.645c0.766,0.859,0.822,1.818,0.057,2.727
		c-1.291,1.732-3.519,4.158-5.478,6.328c-0.936,1.118-0.91,1.438,0.147,2.201c3.664,2.692,5.742,4.268,7.381,5.586
		c2.342,1.617,1.576,2.35,0.316,4.393c-2.461,3.231-4.625,6.02-7.324,7.807c-1.342,0.816-3.566,1.053-3.928-1.107
		c-0.08-1.085,0.777-2.357,2.062-3.672c-0.207,0.114-0.449,0.204-0.713,0.204c-0.672,0-1.229-0.524-1.229-1.141
		c0-0.649,0.557-1.171,1.229-1.171c0.682,0,1.236,0.521,1.236,1.171c0,0.202-0.062,0.408-0.18,0.587
		c1.061-1.055,2.309-2.119,3.574-3.16c0.584-0.473,0.357-0.775-0.559-1.535c-0.928-0.701-1.844-1.402-2.746-2.102
		c0.176,0.173,0.293,0.438,0.293,0.721c0,0.623-0.562,1.156-1.236,1.156c-0.674,0-1.197-0.533-1.197-1.156
		c0-0.638,0.523-1.167,1.197-1.167c0.24,0,0.471,0.084,0.648,0.173c-1.35-1.082-2.697-2.219-4.191-3.416
		c0.119,0.174,0.174,0.387,0.174,0.588c0,0.64-0.559,1.133-1.227,1.133c-0.678,0-1.203-0.493-1.203-1.133
		c0-0.619,0.525-1.143,1.203-1.143c0.174,0,0.318,0.024,0.5,0.07l-0.914-0.695c-1.199-1.181-1.199-1.965,0.123-3.456l0.637-0.726
		c-0.172,0.115-0.375,0.168-0.611,0.168c-0.699,0-1.234-0.516-1.234-1.138c0-0.647,0.535-1.181,1.234-1.181
		c0.647,0,1.205,0.533,1.205,1.181c0,0.146-0.031,0.292-0.086,0.404c0.996-1.077,1.98-2.258,2.867-3.247
		c-0.234,0.139-0.496,0.264-0.797,0.264c-0.666,0-1.221-0.529-1.221-1.146c0-0.643,0.555-1.17,1.221-1.17
		c0.67,0,1.234,0.527,1.234,1.17c0,0.174-0.064,0.352-0.148,0.533l0.973-1.143c0.703-0.915,1.111-1.06,0.287-1.9
		c-0.793-0.771-1.842-1.741-2.932-2.762c0.096,0.177,0.176,0.377,0.176,0.586c0,0.642-0.553,1.149-1.223,1.149
		c-0.678,0-1.232-0.507-1.232-1.149c0-0.615,0.555-1.148,1.232-1.148c0.23,0,0.432,0.067,0.609,0.158
		c-1.176-1.092-2.397-2.206-3.4-3.172c0.086,0.146,0.123,0.327,0.123,0.531c0,0.639-0.527,1.146-1.207,1.146
		c-0.666,0-1.223-0.508-1.223-1.146c0-0.649,0.557-1.139,1.223-1.139c0.211,0,0.41,0.014,0.586,0.115
		c-0.553-0.533-1.023-1.001-1.348-1.383c-1.141-1.314-1.08-2.256,0.059-3.456c0.356-0.388,0.795-0.85,1.289-1.374
		c-0.176,0.114-0.4,0.199-0.666,0.199c-0.682,0-1.203-0.523-1.203-1.141c0-0.648,0.521-1.184,1.203-1.184
		c0.666,0,1.223,0.535,1.223,1.184c0,0.172-0.059,0.348-0.137,0.53c0.934-1.001,2.016-2.14,3.129-3.229
		c-0.176,0.114-0.379,0.149-0.58,0.149c-0.686,0-1.236-0.502-1.236-1.145c0-0.653,0.551-1.133,1.236-1.133
		c0.662,0,1.225,0.479,1.225,1.133c0,0.197-0.055,0.381-0.148,0.522c0.387-0.351,0.736-0.7,1.121-1.012
		c0.875-0.687,0.99-1.181,0.496-1.732c-1.15-1.087-2.201-1.993-3.164-2.849C8.088,26.083,8.15,26.29,8.15,26.53
		c0,0.637-0.568,1.139-1.201,1.139c-0.707,0-1.25-0.502-1.25-1.139c0-0.641,0.543-1.156,1.25-1.156c0.205,0,0.41,0.069,0.58,0.154
		c-1.191-1.096-2.279-2.052-3.277-3.192c0.078,0.177,0.145,0.353,0.145,0.557c0,0.61-0.553,1.138-1.225,1.138
		c-0.684,0-1.201-0.527-1.201-1.138c0-0.646,0.518-1.175,1.201-1.175c0.281,0,0.551,0.123,0.779,0.268l-0.228-0.268
		c-0.469-0.588-1.289-2.025-1.289-4.779c-0.092,0.584-0.582,1.002-1.236,1.002C0.533,17.94,0,17.436,0,16.8
		c0-0.616,0.533-1.15,1.197-1.15c0.654,0,1.18,0.445,1.236,1.025C2.434,16.183,2.459,15.649,2.545,15.096 M10.613,4.054
		c0,0.641,0.553,1.147,1.223,1.147c0.676,0,1.236-0.506,1.236-1.147c0-0.617-0.561-1.147-1.236-1.147
		C11.166,2.906,10.613,3.436,10.613,4.054"/>
</g>
</svg>
