<svg xmlns="http://www.w3.org/2000/svg" xmlns:xlink="http://www.w3.org/1999/xlink" width="342" height="45" viewBox="0 0 342 45">
  <defs>
    <polygon id="logo-ueb-sala-a" points="0 .441 1.541 .441 1.541 1.961 0 1.961"/>
    <polygon id="logo-ueb-sala-c" points=".641 .156 12.792 .156 12.792 43.621 .641 43.621"/>
  </defs>
  <g fill="none" fill-rule="evenodd">
    <path fill="#FFF" d="M16.2533554 45C12.6160486 36.285 11.3359863 27.2628261 11.3359863 17.9563043 11.3359863 13.9441304 11.593717 9.92282609 12.2730686 5.96478261L15.74252 5.96478261C14.9045648 9.73043478 14.6435299 13.59 14.6435299 17.433913 14.6435299 25.511087 15.659914 34.1002174 18.0283928 41.8832609 20.3968716 34.1002174 21.4112731 25.511087 21.4112731 17.433913 21.4112731 13.59 21.1528815 9.73043478 20.3142656 5.96478261L23.7823953 5.96478261C24.4597643 9.92282609 24.7207993 13.9441304 24.7207993 17.9563043 24.7207993 27.2628261 23.4400761 36.285 19.8027693 45L16.2533554 45zM30.4254364 15.5719565C30.7406608 15.2902174 31.2270449 15.3136957 31.5145137 15.6228261 31.8013217 15.933913 31.778192 16.4152174 31.4642893 16.6982609 31.148404 16.9806522 30.6626808 16.9565217 30.3765337 16.6467391 30.0897257 16.3363043 30.1115337 15.8563043 30.4254364 15.5719565M30.4254364 17.9322391C30.7406608 17.6505 31.2270449 17.6739783 31.5145137 17.984413 31.8013217 18.2955 31.778192 18.7741957 31.4642893 19.0585435 31.148404 19.3409348 30.6626808 19.3181087 30.3765337 19.0057174 30.0897257 18.696587 30.1115337 18.216587 30.4254364 17.9322391M32.0569377 19.7741087C32.3708404 19.4910652 32.8572244 19.5145435 33.1440324 19.8249783 33.4301796 20.1360652 33.4083716 20.6160652 33.0944688 20.8991087 32.7785835 21.1815 32.2915387 21.1586739 32.0053915 20.847587 31.7199052 20.5371522 31.7417132 20.0571522 32.0569377 19.7741087M29.9401758 25.9303043C30.2567219 25.6472609 30.7417843 25.6707391 31.0292531 25.9811739 31.3160611 26.2922609 31.2929314 26.7722609 30.9790287 27.0553043 30.6631434 27.3376957 30.1774202 27.3148696 29.8912731 27.005087 29.6057868 26.6946522 29.6262731 26.2133478 29.9401758 25.9303043M29.8588254 28.3198696C30.1879277 28.0537826 30.67299 28.1007391 30.9419551 28.4255217 31.2129027 28.7503043 31.1666434 29.2283478 30.838202 29.4944348 30.5077781 29.7618261 30.0240374 29.7148696 29.7544115 29.390087 29.4847855 29.0666087 29.5297232 28.5872609 29.8588254 28.3198696M31.4180299 30.2343913C31.7497756 29.9735217 32.2335162 30.027 32.4985162 30.3556957 32.7641771 30.6837391 32.7099875 31.1617826 32.3782419 31.4239565 32.0451746 31.6854783 31.5614339 31.632 31.2951122 31.3033043 31.0320948 30.9746087 31.0862843 30.4965652 31.4180299 30.2343913M31.571611 24.4590652C31.8868354 24.1773261 32.3732195 24.2008043 32.6606883 24.5112391 32.9474963 24.8223261 32.9243666 25.3023261 32.6091421 25.5853696 32.2945786 25.8677609 31.8075337 25.8449348 31.5227082 25.5325435 31.2359002 25.223413 31.2577082 24.743413 31.571611 24.4590652M28.3680848 36.1905652C28.7137082 35.9473043 29.1941446 36.0275217 29.4419626 36.369913 29.6884589 36.7116522 29.6071746 37.1851304 29.2615511 37.4296957 28.9152668 37.6729565 28.4354913 37.5927391 28.1876733 37.2516522 27.9418379 36.9105652 28.0224613 36.4338261 28.3680848 36.1905652M28.1873429 38.8323913C28.5408965 38.5995652 29.0186895 38.6934783 29.2546122 39.0423913 29.4911958 39.3913043 29.3966945 39.8628261 29.0431409 40.0969565 28.6895873 40.3304348 28.213116 40.2358696 27.9758716 39.8869565 27.7406097 39.5393478 27.8337893 39.0665217 28.1873429 38.8323913M30.1828392 34.9078696C30.531106 34.6646087 31.0102207 34.7448261 31.256717 35.0872174 31.5032132 35.4302609 31.4219289 35.9037391 31.0763055 36.147 30.7273778 36.3902609 30.2489239 36.3087391 30.0024277 35.9676522 29.7565923 35.6252609 29.8372157 35.1498261 30.1828392 34.9078696M33.9065187 12.0066522C34.0935387 11.6296957 34.5534888 11.4731739 34.9354589 11.6564348 35.3200723 11.8396957 35.4799975 12.2942609 35.2929776 12.6718696 35.1079401 13.0501304 34.6473292 13.2066522 34.2640374 13.0233913 33.8820673 12.8394783 33.7221421 12.384913 33.9065187 12.0066522M34.5402718 9.64121739C34.5607581 9.22317391 34.9209202 8.901 35.3484888 8.92056522 35.7714314 8.94078261 36.099212 9.29752174 36.0787257 9.71621739 36.0582394 10.1368696 35.6967556 10.4590435 35.2705087 10.4388261 34.8475661 10.4166522 34.5197855 10.0618696 34.5402718 9.64121739M34.4460349 6.93697826C34.367394 6.52415217 34.6423067 6.12828261 35.0606234 6.04936957 35.4776185 5.97045652 35.8813965 6.24176087 35.9600374 6.65393478 36.04 7.06676087 35.7637656 7.46328261 35.3454489 7.54219565 34.927793 7.6185 34.5246758 7.34980435 34.4460349 6.93697826M33.5954576 4.51297826C33.3813429 4.15102174 33.5049214 3.68602174 33.8730137 3.47341304 34.241106 3.2621087 34.7116297 3.38341304 34.9264052 3.74471739 35.1418416 4.10797826 35.0176022 4.57167391 34.6514925 4.78558696 34.2834002 4.9968913 33.8122157 4.87493478 33.5954576 4.51297826M32.3512132 13.8128478C32.6664377 13.5311087 33.1515 13.554587 33.4389688 13.8637174 33.7257768 14.1748043 33.7039688 14.6548043 33.3887444 14.9378478 33.0741808 15.2202391 32.5858142 15.197413 32.3009888 14.8863261 32.0155025 14.5758913 32.0373105 14.0971957 32.3512132 13.8128478M5.65401621 15.5719565C5.33879177 15.2902174 4.85372943 15.3136957 4.5649389 15.6228261 4.27813092 15.933913 4.3012606 16.4152174 4.61648504 16.6982609 4.93104863 16.9806522 5.41677182 16.9565217 5.70291895 16.6467391 5.98972693 16.3363043 5.96791895 15.8563043 5.65401621 15.5719565M5.65401621 17.9322391C5.33879177 17.6505 4.85372943 17.6739783 4.5649389 17.984413 4.27813092 18.2955 4.3012606 18.7741957 4.61648504 19.0585435 4.93104863 19.3409348 5.41677182 19.3181087 5.70291895 19.0057174 5.98972693 18.696587 5.96791895 18.216587 5.65401621 17.9322391M4.02251496 19.7741087C3.70993392 19.4910652 3.22354988 19.5145435 2.9354202 19.8249783 2.64927307 20.1360652 2.67240274 20.6160652 2.98498379 20.8991087 3.30086908 21.1815 3.78791397 21.1586739 4.0740611 20.847587 4.36086908 20.5371522 4.3377394 20.0571522 4.02251496 19.7741087M6.13927681 25.9303043C5.82405237 25.6472609 5.33899002 25.6707391 5.0515212 25.9811739 4.76471322 26.2922609 4.7865212 26.7722609 5.10174564 27.0553043 5.41630923 27.3376957 5.90203242 27.3148696 6.18817955 27.005087 6.47498753 26.6946522 6.45317955 26.2133478 6.13927681 25.9303043M6.22062718 28.3198696C5.89152494 28.0537826 5.40778429 28.1007391 5.13749751 28.4255217 4.86654988 28.7503043 4.91280923 29.2283478 5.24257232 29.4944348 5.57167456 29.7618261 6.05673691 29.7148696 6.32636284 29.390087 6.59466708 29.0666087 6.54972943 28.5872609 6.22062718 28.3198696M4.66274439 30.2343913C4.32967706 29.9735217 3.8472581 30.027 3.58093641 30.3556957 3.31527556 30.6837391 3.36946509 31.1617826 3.70253242 31.4239565 4.03559975 31.6854783 4.5180187 31.632 4.7843404 31.3033043 5.04867955 30.9746087 4.99449002 30.4965652 4.66274439 30.2343913M4.50784165 24.4590652C4.19261721 24.1773261 3.70755486 24.2008043 3.42008603 24.5112391 3.13327805 24.8223261 3.15508603 25.3023261 3.47031047 25.5853696 3.78487406 25.8677609 4.27191895 25.8449348 4.55806608 25.5325435 4.84355237 25.223413 4.82306608 24.743413 4.50784165 24.4590652M7.71268953 36.1905652C7.36574439 35.9473043 6.88530798 36.0275217 6.63749002 36.369913 6.39099377 36.7116522 6.47227805 37.1851304 6.8179015 37.4296957 7.16550748 37.6729565 7.64528304 37.5927391 7.8917793 37.2516522 8.13761471 36.9105652 8.05831297 36.4338261 7.71268953 36.1905652M7.89210973 38.8323913C7.53855611 38.5995652 7.06208479 38.6934783 6.82616209 39.0423913 6.58825686 39.3913043 6.6840798 39.8628261 7.03631172 40.0969565 7.38986534 40.3304348 7.86765835 40.2358696 8.10358105 39.8869565 8.34016459 39.5393478 8.24566334 39.0665217 7.89210973 38.8323913M5.89667955 34.9078696C5.54841272 34.6646087 5.0706197 34.7448261 4.82280175 35.0872174 4.57630549 35.4302609 4.65758978 35.9037391 5.00321322 36.147 5.3521409 36.3902609 5.83191646 36.3087391 6.07841272 35.9676522 6.32292643 35.6252609 6.24230299 35.1498261 5.89667955 34.9078696M2.17418953 12.0066522C1.98716958 11.6296957 1.5265586 11.4731739 1.14392768 11.6564348.76063591 11.8396957.599389027 12.2942609.787730673 12.6718696.971446384 13.0501304 1.43205736 13.2066522 1.81534913 13.0233913 2.1973192 12.8394783 2.35724439 12.384913 2.17418953 12.0066522"/>
    <g transform="translate(0 8.478)">
      <mask id="logo-ueb-sala-b" fill="#fff">
        <use xlink:href="#logo-ueb-sala-a"/>
      </mask>
      <path fill="#FFF" d="M1.54050249,1.16295652 C1.51869451,0.744913043 1.15721072,0.42273913 0.73096384,0.442304348 C0.308021197,0.462521739 -0.0197593516,0.81926087 0.000726932668,1.23795652 C0.021213217,1.6586087 0.382697007,1.98078261 0.807622195,1.96056522 C1.23188653,1.9383913 1.55966708,1.5836087 1.54050249,1.16295652" mask="url(#logo-ueb-sala-b)"/>
    </g>
    <path fill="#FFF" d="M1.63467332 6.93697826C1.71199252 6.52415217 1.4384015 6.12828261 1.02008479 6.04936957.602428928 5.97045652.199311721 6.24176087.119349127 6.65393478.0393865337 7.06676087.315620948 7.46328261.733937656 7.54219565 1.15225436 7.6185 1.55471072 7.34980435 1.63467332 6.93697826M2.48399501 4.51297826C2.69810973 4.15102174 2.57453117 3.68602174 2.2077606 3.47341304 1.83834663 3.2621087 1.36914464 3.38341304 1.15304738 3.74471739.938932668 4.10797826 1.06185037 4.57167391 1.4292818 4.78558696 1.79737406 4.9968913 2.26723691 4.87493478 2.48399501 4.51297826M3.7282394 13.8128478C3.41301496 13.5311087 2.92795262 13.554587 2.64114464 13.8637174 2.35499751 14.1748043 2.37812718 14.6548043 2.69070823 14.9378478 3.00527182 15.2202391 3.4936384 15.197413 3.77978554 14.8863261 4.06527182 14.5758913 4.04346384 14.0971957 3.7282394 13.8128478"/>
    <path fill="#FFF" d="M6.8105,2.26604348 C7.05567456,2.00256522 7.46870449,1.98430435 7.73700873,2.22430435 C8.00597382,2.46495652 8.02381671,2.87517391 7.78128554,3.13865217 C7.53611097,3.40213043 7.12175935,3.42104348 6.85411596,3.1803913 C6.58581172,2.93973913 6.56664713,2.53082609 6.8105,2.26604348 M13.0046272,36.0923478 L8.60734539,33.033 C8.25643516,32.7551739 8.19960224,32.2497391 8.48046259,31.9027826 L11.4212357,28.5056087 C12.0285549,27.8488696 11.9809738,26.8295217 11.3135175,26.2282174 L7.63127307,22.9177826 C7.29820574,22.6197391 7.27507606,22.1116957 7.57708354,21.783 L10.9355125,18.1510435 C11.5448142,17.493 11.4959115,16.4736522 10.8297768,15.8736522 L5.9533803,11.4766957 C5.28724564,10.8766957 5.30310599,9.90365217 5.84764464,9.2006087 L10.9229564,2.51191304 C11.4225574,1.86626087 11.3914975,1.113 10.8350636,0.612782609 C10.5561858,0.364304348 10.0090037,0.0727826087 9.00715835,0.178434783 C4.221298,0.687782609 1.00759476,4.82908696 1.53693392,9.61930435 C1.80259476,12.0258261 2.67227057,12.8893043 3.15006359,13.3184348 L6.82107357,16.6275652 C7.1541409,16.926913 7.17727057,17.4343043 6.8739414,17.763 L3.51815586,21.3956087 C2.91017581,22.053 2.95775686,23.0716957 3.62521322,23.6716957 L7.30613591,26.9847391 C7.63920324,27.284087 7.66233292,27.7927826 7.35900374,28.1201739 L4.40435287,31.7743043 C3.84064963,32.4701739 3.95563716,33.4836522 4.6587793,34.0406087 L9.06399127,37.1423478 C9.41886658,37.4156087 9.47966459,37.9203913 9.20343017,38.2693043 L7.30481421,41.069087 C6.77944015,41.7923478 6.94729551,42.7999565 7.68149751,43.3184348 C8.41636035,43.836913 9.43604863,43.6712609 9.960101,42.9466957 L13.2821833,38.3560435 C13.8399389,37.6543043 13.7156995,36.6427826 13.0046272,36.0923478"/>
    <g transform="translate(21.808)">
      <mask id="logo-ueb-sala-d" fill="#fff">
        <use xlink:href="#logo-ueb-sala-c"/>
      </mask>
      <path fill="#FFF" d="M7.41841397,3.18065217 C7.15010973,3.42130435 6.7357581,3.4023913 6.49058354,3.13891304 C6.24805237,2.87478261 6.26589526,2.46456522 6.5341995,2.22391304 C6.80250374,1.98456522 7.21685536,2.00217391 7.46070823,2.26630435 C7.70522195,2.53108696 7.68539651,2.94 7.41841397,3.18065217 M5.26404988,0.178043478 C4.26286534,0.0723913043 3.71502244,0.364565217 3.43680549,0.612391304 C2.88169327,1.11326087 2.84931172,1.86586957 3.34891272,2.51217391 L8.42488529,9.20021739 C8.96876309,9.90391304 8.98396259,10.8769565 8.31782793,11.4769565 L3.44143142,15.873913 C2.77595761,16.473913 2.72639401,17.4926087 3.33569576,18.1513043 L6.69412469,21.7826087 C6.99745387,22.1113043 6.97300249,22.62 6.63993516,22.9180435 L2.95769077,26.2284783 C2.29023441,26.8297826 2.24397506,27.8484783 2.85063342,28.5058696 L5.79206733,31.9030435 C6.07358853,32.2493478 6.01543392,32.7554348 5.66452369,33.0326087 L1.26790274,36.0926087 C0.556830424,36.6430435 0.43325187,37.653913 0.989024938,38.3563043 L4.31044638,42.9469565 C4.83582045,43.6715217 5.85683042,43.8371739 6.58971072,43.3186957 C7.32391272,42.8002174 7.49176808,41.7926087 6.96771571,41.0693478 L5.06777805,38.2695652 C4.79154364,37.9206522 4.85366334,37.4158696 5.20721696,37.1419565 L9.61375062,34.0402174 C10.3175536,33.483913 10.4325411,32.4697826 9.86949875,31.7745652 L6.91352618,28.1197826 C6.60887531,27.7923913 6.63266584,27.2843478 6.96507232,26.985 L10.6479776,23.6719565 C11.3147731,23.0719565 11.3616933,22.0526087 10.7550349,21.3958696 L7.39792768,17.7626087 C7.0945985,17.433913 7.11904988,16.9271739 7.45079551,16.6278261 L11.1224663,13.3186957 C11.6002594,12.8895652 12.4692743,12.026087 12.7349352,9.61956522 C13.2642743,4.82869565 10.0512319,0.688043478 5.26404988,0.178043478" mask="url(#logo-ueb-sala-d)"/>
    </g>
    <path fill="#FFF" d="M204.316256 23.5266522C204.037378 24.1638261 203.660695 24.7318696 203.147877 25.2223043 202.622502 25.7225217 202.026418 26.1177391 201.386056 26.3557826 200.712652 26.6114348 200.022066 26.7457826 199.262091 26.7457826 198.523263 26.7457826 197.831355 26.6114348 197.153986 26.3557826 196.483887 26.0805652 195.908288 25.7036087 195.401418 25.2223043 194.8886 24.7318696 194.49143 24.1638261 194.229074 23.5266522 193.948874 22.8986087 193.817365 22.2451304 193.817365 21.5316522 193.817365 20.8364348 193.948874 20.1666522 194.229074 19.517087 194.509273 18.8838261 194.8886 18.3333913 195.401418 17.8442609 195.938026 17.3551304 196.536094 16.9690435 197.202889 16.6925217 197.862415 16.4303478 198.554323 16.3005652 199.262091 16.3005652 200.005545 16.3005652 200.69547 16.4303478 201.351692 16.6925217 202.013862 16.9501304 202.603338 17.3427391 203.118799 17.8442609 203.660695 18.3640435 204.055221 18.9307826 204.331455 19.5666522 204.59249 20.1829565 204.726642 20.8364348 204.726642 21.5316522 204.726642 22.2451304 204.59249 22.8986087 204.316256 23.5266522L204.316256 23.5266522zM205.338587 15.861C204.531692 15.1044783 203.609148 14.5338261 202.576243 14.1275217 201.520869 13.7362174 200.421879 13.5288261 199.262091 13.5288261 198.130059 13.5288261 197.048251 13.7362174 196.008076 14.1275217 194.968562 14.5162174 194.030819 15.1044783 193.229211 15.861 192.420994 16.5946957 191.796493 17.4542609 191.349759 18.4325217 190.920869 19.4036087 190.694198 20.4275217 190.694198 21.4657826 190.694198 22.5562174 190.906991 23.612087 191.333899 24.5851304 191.760146 25.5607826 192.389934 26.4373043 193.229211 27.2166522 194.013637 27.9464348 194.938163 28.5340435 195.990894 28.9364348 197.026443 29.3264348 198.130059 29.5351304 199.262091 29.5351304 200.421879 29.5351304 201.520869 29.3427391 202.557079 28.9514348 203.595931 28.5503478 204.512527 27.9823043 205.355108 27.2166522 206.164647 26.4692609 206.771305 25.6044783 207.215395 24.6516522 207.646268 23.6779565 207.855096 22.6514348 207.855096 21.5942609 207.855096 20.4757826 207.646268 19.4375217 207.230595 18.4814348 206.7984 17.5031739 206.164647 16.6253478 205.338587 15.861L205.338587 15.861zM256.597914 26.6512174L256.597914 22.7968696 264.102502 22.7968696 264.102502 20.1040435 256.597914 20.1040435 256.597914 16.4023043 264.337103 16.4023043 264.337103 13.7225217 253.425844 13.7225217 253.425844 29.3264348 264.586243 29.3264348 264.586243 26.6512174 256.597914 26.6512174zM248.616193 23.3036087C248.602315 24.3073043 248.277839 25.0553478 247.547602 25.6527391 246.843138 26.2396957 245.886231 26.571 244.635906 26.571 243.897739 26.571 243.2587 26.4373043 242.712839 26.2116522 242.149797 25.9814348 241.674647 25.6246957 241.261617 25.1544783 241.055433 24.9112174 240.900133 24.621 240.822814 24.2766522 240.725009 23.9381739 240.669498 23.286 240.669498 22.3436087L240.669498 13.6533913 237.72542 13.6533913 237.72542 22.4283913C237.72542 23.627087 237.808026 24.5212174 237.991081 25.1544783 238.171493 25.776 238.463587 26.3414348 238.891817 26.841 239.571168 27.6712174 240.391941 28.2894783 241.377926 28.7251304 242.353999 29.1464348 243.449685 29.3603478 244.635906 29.3603478 246.638936 29.3603478 248.324759 28.8092609 249.607465 27.7057826 250.908675 26.6114348 251.566879 25.1225217 251.543749 23.3675217L251.543749 13.6533913 248.616193 13.6533913 248.616193 23.3036087zM232.905857 23.514913C232.624335 24.1638261 232.247652 24.7481739 231.734834 25.236L231.716991 25.2503478C231.190296 25.7903478 230.598176 26.1751304 229.957814 26.4523043 229.296966 26.7125217 228.610345 26.8540435 227.884734 26.8540435 227.160445 26.8540435 226.480433 26.7125217 225.809011 26.4373043 225.135607 26.147087 224.560009 25.757087 224.045208 25.2503478L224.045208 25.236C223.537677 24.7481739 223.147777 24.1638261 222.884759 23.514913 222.600595 22.8640435 222.471729 22.1838261 222.471729 21.4657826 222.471729 20.7386087 222.600595 20.0544783 222.884759 19.3918696 223.147777 18.741 223.537677 18.1716522 224.035956 17.6786087 224.577852 17.1614348 225.164024 16.7740435 225.830158 16.4994783 226.506206 16.2190435 227.177627 16.0931739 227.884734 16.0931739 228.610345 16.0931739 229.296966 16.2190435 229.957814 16.4994783 230.613375 16.7564348 231.190296 17.1477391 231.707739 17.6662174 232.247652 18.2023043 232.636892 18.7833913 232.905857 19.4375217 233.184734 20.0681739 233.316243 20.7386087 233.316243 21.4657826 233.316243 22.1838261 233.184734 22.8640435 232.905857 23.514913L232.905857 23.514913zM234.647852 26.762087C235.835395 25.3631739 236.429498 23.7125217 236.429498 21.8466522 236.429498 20.7053478 236.208774 19.6286087 235.799709 18.6379565 235.376106 17.6662174 234.74764 16.7740435 233.922901 15.9783913 233.135171 15.2153478 232.208662 14.6114348 231.176418 14.2077391 230.120383 13.8001304 229.038575 13.5927391 227.884734 13.5927391 226.75138 13.5927391 225.663625 13.8001304 224.629398 14.2077391 223.603762 14.6114348 222.683201 15.1977391 221.857141 15.9783913 221.071393 16.7401304 220.444909 17.6173043 220.021966 18.6073043 219.57259 19.6162174 219.355832 20.634913 219.355832 21.696 219.355832 23.627087 219.951916 25.3455652 221.122939 26.7992609 222.275458 28.2386087 223.813911 29.1973043 225.693363 29.6662174 227.095021 30.6457826 228.41143 31.3938261 229.65845 31.907087 230.949086 32.4431739 232.119448 32.7040435 233.184734 32.7040435L233.496655 32.7040435C233.596443 32.7040435 233.677727 32.6942609 233.755046 32.6773043L233.881268 32.6596957 236.225296 30.6268696 236.047527 30.1390435 235.918001 29.8305652 235.608724 29.8983913C235.304074 29.9629565 235.045682 29.994913 234.795221 30.0216522 234.563263 30.062087 234.353774 30.062087 234.150894 30.062087 233.543575 30.062087 232.905857 29.9733913 232.231792 29.8155652 231.816118 29.6981739 231.34163 29.5351304 230.83542 29.3427391 232.379161 28.776 233.677727 27.9301304 234.647852 26.762087L234.647852 26.762087zM214.73254 20.1523043L214.73254 20.1523043 214.392864 19.9703478C213.48552 19.4518696 212.824672 18.9790435 212.397764 18.5740435 212.181667 18.3640435 212.037602 18.1866522 211.956318 18.0275217 211.851243 17.8657826 211.824148 17.7477391 211.824148 17.6518696 211.837365 17.2612174 211.967552 16.9957826 212.329036 16.7401304 212.695807 16.4812174 213.170296 16.3364348 213.811979 16.3364348 214.357839 16.3364348 214.887178 16.4303478 215.424448 16.6416522 215.97163 16.8712174 216.576966 17.2136087 217.236493 17.7183913L217.876854 18.1866522 217.876854 14.8227391 217.683226 14.7086087C217.058064 14.372087 216.430919 14.1105652 215.802453 13.9312174 215.178612 13.7681739 214.554111 13.6703478 213.907802 13.6703478 212.483675 13.6703478 211.260445 14.0636087 210.310146 14.841 209.37042 15.6203478 208.876106 16.674913 208.876106 17.889913 208.876106 18.7742609 209.125246 19.5496957 209.631455 20.1992609 209.91562 20.5423043 210.32865 20.8990435 210.887066 21.3027391 211.462004 21.7318696 212.197527 22.1994783 213.090333 22.7407826 213.650732 23.0564348 214.102752 23.3518696 214.453662 23.5964348 214.804572 23.841 215.049747 24.0503478 215.166056 24.1801304 215.408587 24.4703478 215.501767 24.7631739 215.52754 25.1544783 215.501767 25.6246957 215.358363 25.9175217 214.999522 26.1927391 214.652577 26.4523043 214.125882 26.6114348 213.404236 26.6114348 212.730171 26.6114348 212.103026 26.4692609 211.508263 26.162087 210.922091 25.8653478 210.277103 25.3455652 209.583874 24.6373043L208.893288 23.8996957 208.893288 27.8029565 209.063787 27.9125217C209.714061 28.4166522 210.403325 28.791 211.133562 29.0179565 211.871069 29.2690435 212.677303 29.379913 213.544996 29.379913 214.977714 29.379913 216.1983 28.986 217.14067 28.2105652 218.089647 27.4279565 218.583961 26.3877391 218.583961 25.1864348 218.583961 24.1638261 218.338787 23.2683913 217.812091 22.5392609 217.285395 21.7918696 216.26835 21.0262174 214.73254 20.1523043L214.73254 20.1523043zM185.901729 25.9683913C185.492665 26.2768696 184.735994 26.4881739 183.6337 26.4692609L180.892502 26.4692609 180.892502 22.2451304 183.249086 22.2451304C184.485532 22.2451304 185.342652 22.4531739 185.815158 22.7968696 186.282378 23.1457826 186.527552 23.612087 186.527552 24.407087 186.527552 25.1864348 186.317403 25.6527391 185.901729 25.9683913L185.901729 25.9683913zM180.892502 15.3157826L182.742216 15.3157826C183.713662 15.3157826 184.35138 15.4879565 184.697665 15.7683913 184.870146 15.917087 184.994385 16.0723043 185.094834 16.3181739 185.17744 16.5477391 185.228986 16.8405652 185.228986 17.1973043 185.228986 17.9779565 184.994385 18.4631739 184.517914 18.819913 184.061268 19.1590435 183.249086 19.3742609 182.085994 19.3742609L180.892502 19.3742609 180.892502 15.3157826zM186.739024 20.3283913C187.167914 20.0544783 187.547241 19.742087 187.823475 19.3540435 188.292016 18.726 188.498201 17.9433913 188.498201 17.0505652 188.498201 15.6203478 188.00653 14.4457826 187.017901 13.641 186.031916 12.8283913 184.684448 12.4586087 182.986069 12.4586087L177.766031 12.4586087 177.766031 29.3603478 183.881517 29.3603478C185.639373 29.3603478 187.082665 28.9364348 188.175707 28.0768696 189.258837 27.2166522 189.842365 26.0179565 189.821218 24.5688261 189.821218 23.4464348 189.452465 22.4531739 188.752627 21.6633913 188.221305 21.0796957 187.547241 20.634913 186.739024 20.3283913L186.739024 20.3283913zM164.244423 13.641L161.071692 13.641 161.071692 29.3603478 172.2235 29.3603478 172.2235 26.6805652 164.244423 26.6805652 164.244423 13.641zM151.457677 22.2653478L158.915345 22.2653478 158.915345 19.4036087 151.457677 19.4036087 151.457677 15.2942609 159.125495 15.2942609 159.125495 12.4729565 148.296181 12.4729565 148.296181 29.3603478 159.375956 29.3603478 159.375956 26.5012174 151.457677 26.5012174 151.457677 22.2653478zM134.929805 27.8078478L134.929805 19.4404565 137.289032 19.4404565C137.926751 19.4404565 138.48715 19.5089348 138.946439 19.6061087 139.411015 19.7182826 139.824045 19.8800217 140.149182 20.1037174 140.697025 20.4656739 141.122611 20.9704565 141.432549 21.5867609 141.749756 22.2030652 141.89316 22.8871957 141.89316 23.6313261 141.89316 24.3637174 141.749756 25.0426304 141.432549 25.6804565 141.122611 26.2961087 140.697025 26.7852391 140.149182 27.159587 139.824045 27.3852391 139.411015 27.5482826 138.946439 27.662413 138.48715 27.7582826 137.926751 27.8078478 137.289032 27.8078478L134.929805 27.8078478zM139.376651 28.2741522C139.925155 28.1300217 140.397 27.9043696 140.806726 27.5926304 141.421975 27.1393696 141.89316 26.5732826 142.238122 25.8741522 142.586389 25.1763261 142.751601 24.4093696 142.751601 23.6156739 142.751601 22.8187174 142.586389 22.0706739 142.238122 21.3571957 141.89316 20.6593696 141.421975 20.0900217 140.806726 19.6380652 140.397 19.3282826 139.925155 19.1000217 139.390529 18.9565435 138.863833 18.8287174 138.241975 18.7439348 137.483983 18.7439348L134.111676 18.7439348 134.111676 28.5017609 137.483983 28.5017609C138.223471 28.5017609 138.853259 28.4215435 139.376651 28.2741522L139.376651 28.2741522zM125.236489 24.6206739L127.037299 20.402413 128.812998 24.6206739 125.236489 24.6206739zM126.868122 19.1156739L122.804569 28.5017609 123.594943 28.5017609 124.978097 25.2552391 129.070067 25.2552391 130.458509 28.5017609 131.248883 28.5017609 127.182686 19.1156739 126.868122 19.1156739zM113.507761 27.8078478L113.507761 19.4404565 115.86104 19.4404565C116.500741 19.4404565 117.058496 19.5089348 117.517786 19.6061087 117.985005 19.7182826 118.393409 19.8800217 118.722511 20.1037174 119.268372 20.4656739 119.693958 20.9704565 120.011825 21.5867609 120.31912 22.2030652 120.465828 22.8871957 120.465828 23.6313261 120.465828 24.3637174 120.31912 25.0426304 120.011825 25.6804565 119.693958 26.2961087 119.268372 26.7852391 118.722511 27.159587 118.393409 27.3852391 117.985005 27.5482826 117.517786 27.662413 117.058496 27.7582826 116.500741 27.8078478 115.86104 27.8078478L113.507761 27.8078478zM117.949319 28.2741522C118.491214 28.1300217 118.953147 27.9043696 119.383359 27.5926304 119.993322 27.1393696 120.465828 26.5732826 120.814756 25.8741522 121.159057 25.1763261 121.320304 24.4093696 121.320304 23.6156739 121.320304 22.8187174 121.159057 22.0706739 120.814756 21.3571957 120.465828 20.6593696 119.993322 20.0900217 119.383359 19.6380652 118.953147 19.3282826 118.491214 19.1000217 117.961875 18.9565435 117.440466 18.8287174 116.815965 18.7439348 116.059294 18.7439348L112.668484 18.7439348 112.668484 28.5017609 116.059294 28.5017609C116.798122 28.5017609 117.421302 28.4215435 117.949319 28.2741522L117.949319 28.2741522zM108.178022 28.5037174L109.010691 28.5037174 109.010691 18.7439348 108.178022 18.7439348 108.178022 28.5037174zM105.026439 25.9687174C105.026439 25.6465435 104.968284 25.3393696 104.8718 25.0426304 104.752848 24.7517609 104.592923 24.4908913 104.388721 24.2665435 104.078783 23.9254565 103.464855 23.5700217 102.579319 23.2093696 102.480853 23.162413 102.416751 23.1408913 102.367848 23.1089348 101.556988 22.7698043 101.035579 22.479587 100.80296 22.2030652 100.555142 21.947413 100.439494 21.5867609 100.439494 21.1648043 100.439494 20.6417609 100.617262 20.2048043 100.996589 19.8467609 101.376576 19.5089348 101.853708 19.3282826 102.442524 19.3282826 102.806651 19.3282826 103.170117 19.3935 103.531601 19.5206739 103.916214 19.6504565 104.290915 19.8656739 104.701302 20.139587L104.701302 19.2643696C104.323958 19.0517609 103.963135 18.8900217 103.599007 18.7752391 103.237524 18.6826304 102.86084 18.6121957 102.480853 18.6121957 101.639594 18.6121957 100.965529 18.8567609 100.439494 19.344587 99.9101546 19.8317609 99.6491197 20.4506739 99.6491197 21.1915435 99.6491197 21.8098043 99.8143317 22.3178478 100.163259 22.7091522 100.506239 23.0971957 101.146601 23.4871957 102.086327 23.8706739 102.992349 24.2489348 103.567948 24.5737174 103.817087 24.8489348 104.078783 25.1417609 104.188484 25.5011087 104.188484 25.9406739 104.188484 26.5406739 104.014681 27.0076304 103.631389 27.3643696 103.272549 27.7087174 102.758409 27.8867609 102.12003 27.8867609 101.740042 27.8867609 101.324369 27.7889348 100.932486 27.624587 100.506239 27.4498043 100.07801 27.1889348 99.6180599 26.8308913L99.6180599 27.7706739C100.04695 28.067413 100.454693 28.2741522 100.870367 28.4215435 101.29397 28.5630652 101.708983 28.6335 102.135229 28.6335 102.979132 28.6335 103.664431 28.3948043 104.209631 27.8867609 104.752848 27.3852391 105.026439 26.7493696 105.026439 25.9687174L105.026439 25.9687174zM91.0131596 19.412413L92.6547057 19.412413C93.3941945 19.412413 93.9545935 19.5552391 94.36498 19.8800217 94.7601671 20.1891522 94.9564389 20.627413 94.9564389 21.1915435 94.9564389 21.6030652 94.8791197 21.9558913 94.6980474 22.2376304 94.5149925 22.5317609 94.2513142 22.7404565 93.8878479 22.8963261 93.6942195 22.9804565 93.4589576 23.0463261 93.166202 23.0971957 92.8628728 23.1239348 92.35402 23.1408913 91.6211397 23.1408913L91.0131596 23.1408913 91.0131596 19.412413zM91.0131596 23.8106739L91.8081596 23.8106739C92.3745062 23.8106739 92.7928229 23.8576304 93.066414 23.9254565 93.3479352 23.9854565 93.5779102 24.1217609 93.7609651 24.2958913 93.8878479 24.4282826 94.0550424 24.6389348 94.2823741 24.9467609 94.4978105 25.239587 94.7766883 25.629587 95.0720873 26.1050217L96.6369751 28.5017609 97.5225112 28.5017609 94.8242693 24.3969783C94.7112643 24.2182826 94.5764514 24.0526304 94.4502294 23.9254565 94.3008778 23.7943696 94.1330224 23.6808913 93.9545935 23.5700217 94.5764514 23.372413 95.0449925 23.0769783 95.3536085 22.6732826 95.6688329 22.2806739 95.8148803 21.7791522 95.8148803 21.1915435 95.8148803 20.402413 95.5498803 19.7985 94.9921247 19.3765435 94.4297431 18.9565435 93.6420125 18.7439348 92.6084464 18.7439348L90.2346808 18.7439348 90.2346808 28.5017609 91.0131596 28.5017609 91.0131596 23.8106739zM86.7473865 27.8358913L82.1240948 27.8358913 82.1240948 23.8706739 86.4823865 23.8706739 86.4823865 23.2452391 82.1240948 23.2452391 82.1240948 19.3765435 86.6337207 19.3765435 86.6337207 18.7439348 81.3317382 18.7439348 81.3317382 28.5017609 86.7473865 28.5017609 86.7473865 27.8358913zM74.8336209 28.6648043L78.9824239 18.7439348 78.1418254 18.7439348 74.7668753 26.9313261 71.4302544 18.7439348 70.5539701 18.7439348 74.7166509 28.6648043 74.8336209 28.6648043zM66.8856035 28.5017609L67.7255411 28.5017609 67.7255411 18.7432826 66.8856035 18.7432826 66.8856035 28.5017609zM55.3313392 19.7358913L62.5722494 28.3582826 63.2971995 28.3582826 63.2971995 18.6121957 62.5180599 18.6121957 62.5180599 27.1035 55.3637207 18.6121957 54.5409651 18.6121957 54.5409651 28.3582826 55.3313392 28.3582826 55.3313392 19.7358913zM46.3940324 29.3671957C47.8089077 29.3671957 48.9303666 28.9237174 49.7577481 28.0511087 50.5738953 27.1732826 51.0047681 25.9863261 51.0047681 24.5071957L51.0047681 18.0585 50.062399 18.0585 50.062399 24.5587174C50.062399 25.7430652 49.7319751 26.6841522 49.0830224 27.3852391 48.4036708 28.0817609 47.5148304 28.442413 46.3940324 28.442413 45.2765387 28.442413 44.3857157 28.0817609 43.7275112 27.3852391 43.0541072 26.6841522 42.7210399 25.7430652 42.7210399 24.5587174L42.7210399 18.0585 41.8222868 18.0585 41.8222868 24.5071957C41.8222868 26.0013261 42.2280474 27.1889348 43.0541072 28.0511087 43.8775237 28.9237174 44.9976608 29.3671957 46.3940324 29.3671957L46.3940324 29.3671957zM308.959778 20.4330833C306.770978 20.4330833 306.295778 21.6570833 306.295778 22.4058833 306.295778 23.5866833 307.634978 23.8890833 309.218978 24.0906833 311.076578 24.3354833 312.660578 24.9114833 312.660578 26.8410833 312.660578 28.3818833 311.465378 29.8218833 308.988578 29.8218833 307.462178 29.8218833 306.194978 29.4762833 305.100578 28.7130833 304.956578 28.6266833 304.956578 28.5546833 305.042978 28.3962833L305.316578 27.9354833C305.417378 27.7770833 305.474978 27.7482833 305.647778 27.8490833 306.569378 28.4826833 307.764578 28.8138833 308.844578 28.8138833 310.169378 28.8138833 311.551778 28.3818833 311.551778 26.8842833 311.551778 25.6890833 310.471778 25.3002833 308.585378 25.0410833 307.015778 24.8250833 305.186978 24.3498833 305.186978 22.4346833 305.186978 21.3258833 306.022178 19.4250833 308.815778 19.4250833 310.298978 19.4250833 311.263778 19.8570833 312.358178 20.5194833 312.516578 20.6058833 312.487778 20.6922833 312.430178 20.8362833L312.156578 21.2826833C312.070178 21.4410833 311.983778 21.4986833 311.839778 21.3834833 310.918178 20.7642833 309.967778 20.4330833 308.959778 20.4330833zM318.593378 21.3114833L318.578978 21.3114833 316.462178 26.0058833 320.710178 26.0058833 318.593378 21.3114833zM318.780578 19.5402833L323.489378 29.4330833C323.546978 29.5626833 323.489378 29.6634833 323.345378 29.6634833L322.510178 29.6634833C322.366178 29.6634833 322.308578 29.6058833 322.222178 29.4330833L321.098978 26.9850833 316.073378 26.9850833 314.950178 29.4330833C314.863778 29.6058833 314.806178 29.6634833 314.647778 29.6634833L313.812578 29.6634833C313.682978 29.6634833 313.625378 29.5626833 313.682978 29.4330833L318.377378 19.5402833C318.449378 19.4250833 318.478178 19.3386833 318.564578 19.3386833L318.607778 19.3386833C318.679778 19.3386833 318.722978 19.4250833 318.780578 19.5402833zM326.254178 28.6698833L331.207778 28.6698833C331.380578 28.6698833 331.423778 28.7274833 331.423778 28.9002833L331.423778 29.4330833C331.423778 29.6058833 331.380578 29.6634833 331.207778 29.6634833L325.346978 29.6634833C325.174178 29.6634833 325.116578 29.6058833 325.116578 29.4330833L325.116578 19.8138833C325.116578 19.6410833 325.174178 19.5834833 325.346978 19.5834833L326.023778 19.5834833C326.196578 19.5834833 326.254178 19.6410833 326.254178 19.8138833L326.254178 28.6698833zM337.054178 21.3114833L337.039778 21.3114833 334.922978 26.0058833 339.170978 26.0058833 337.054178 21.3114833zM337.241378 19.5402833L341.950178 29.4330833C342.007778 29.5626833 341.950178 29.6634833 341.806178 29.6634833L340.970978 29.6634833C340.826978 29.6634833 340.769378 29.6058833 340.682978 29.4330833L339.559778 26.9850833 334.534178 26.9850833 333.410978 29.4330833C333.324578 29.6058833 333.266978 29.6634833 333.108578 29.6634833L332.273378 29.6634833C332.143778 29.6634833 332.086178 29.5626833 332.143778 29.4330833L336.838178 19.5402833C336.910178 19.4250833 336.938978 19.3386833 337.025378 19.3386833L337.068578 19.3386833C337.140578 19.3386833 337.183778 19.4250833 337.241378 19.5402833z"/>
    <polygon fill="#FFF" points="283 35 286 35 286 11 283 11"/>
  </g>
</svg>
